<mxfile host="Electron" agent="Mozilla/5.0 (Macintosh; Intel Mac OS X 10_15_7) AppleWebKit/537.36 (KHTML, like Gecko) draw.io/24.7.5 Chrome/126.0.6478.183 Electron/31.3.0 Safari/537.36" version="24.7.5">
  <diagram id="C5RBs43oDa-KdzZeNtuy" name="Page-1">
    <mxGraphModel dx="1193" dy="951" grid="1" gridSize="10" guides="1" tooltips="1" connect="1" arrows="1" fold="1" page="1" pageScale="1" pageWidth="827" pageHeight="1169" math="0" shadow="0">
      <root>
        <mxCell id="WIyWlLk6GJQsqaUBKTNV-0" />
        <mxCell id="WIyWlLk6GJQsqaUBKTNV-1" parent="WIyWlLk6GJQsqaUBKTNV-0" />
        <mxCell id="WIyWlLk6GJQsqaUBKTNV-2" value="" style="rounded=0;html=1;jettySize=auto;orthogonalLoop=1;fontSize=11;endArrow=block;endFill=0;endSize=8;strokeWidth=1;shadow=0;labelBackgroundColor=none;edgeStyle=orthogonalEdgeStyle;" parent="WIyWlLk6GJQsqaUBKTNV-1" source="WIyWlLk6GJQsqaUBKTNV-3" target="WIyWlLk6GJQsqaUBKTNV-6" edge="1">
          <mxGeometry relative="1" as="geometry" />
        </mxCell>
        <mxCell id="WIyWlLk6GJQsqaUBKTNV-3" value="Game starts" style="rounded=1;whiteSpace=wrap;html=1;fontSize=12;glass=0;strokeWidth=1;shadow=0;" parent="WIyWlLk6GJQsqaUBKTNV-1" vertex="1">
          <mxGeometry x="160" y="24" width="120" height="40" as="geometry" />
        </mxCell>
        <mxCell id="WIyWlLk6GJQsqaUBKTNV-5" value="No" style="edgeStyle=orthogonalEdgeStyle;rounded=0;html=1;jettySize=auto;orthogonalLoop=1;fontSize=11;endArrow=block;endFill=0;endSize=8;strokeWidth=1;shadow=0;labelBackgroundColor=none;" parent="WIyWlLk6GJQsqaUBKTNV-1" source="WIyWlLk6GJQsqaUBKTNV-6" target="WIyWlLk6GJQsqaUBKTNV-7" edge="1">
          <mxGeometry y="10" relative="1" as="geometry">
            <mxPoint as="offset" />
          </mxGeometry>
        </mxCell>
        <mxCell id="WIyWlLk6GJQsqaUBKTNV-6" value="Want to play?" style="rhombus;whiteSpace=wrap;html=1;shadow=0;fontFamily=Helvetica;fontSize=12;align=center;strokeWidth=1;spacing=6;spacingTop=-4;" parent="WIyWlLk6GJQsqaUBKTNV-1" vertex="1">
          <mxGeometry x="170" y="114" width="100" height="80" as="geometry" />
        </mxCell>
        <mxCell id="WIyWlLk6GJQsqaUBKTNV-7" value="Game ends" style="rounded=1;whiteSpace=wrap;html=1;fontSize=12;glass=0;strokeWidth=1;shadow=0;" parent="WIyWlLk6GJQsqaUBKTNV-1" vertex="1">
          <mxGeometry x="320" y="134" width="120" height="40" as="geometry" />
        </mxCell>
        <mxCell id="WIyWlLk6GJQsqaUBKTNV-8" value="Yes" style="rounded=0;html=1;jettySize=auto;orthogonalLoop=1;fontSize=11;endArrow=block;endFill=0;endSize=8;strokeWidth=1;shadow=0;labelBackgroundColor=none;edgeStyle=orthogonalEdgeStyle;exitX=0.5;exitY=1;exitDx=0;exitDy=0;" parent="WIyWlLk6GJQsqaUBKTNV-1" source="WIyWlLk6GJQsqaUBKTNV-6" edge="1">
          <mxGeometry x="0.3333" y="20" relative="1" as="geometry">
            <mxPoint as="offset" />
            <mxPoint x="640" y="354" as="sourcePoint" />
            <mxPoint x="220" y="234" as="targetPoint" />
          </mxGeometry>
        </mxCell>
        <mxCell id="WIyWlLk6GJQsqaUBKTNV-11" value="RESET" style="rounded=1;whiteSpace=wrap;html=1;fontSize=12;glass=0;strokeWidth=1;shadow=0;" parent="WIyWlLk6GJQsqaUBKTNV-1" vertex="1">
          <mxGeometry x="320" y="64" width="120" height="40" as="geometry" />
        </mxCell>
        <mxCell id="WIyWlLk6GJQsqaUBKTNV-12" value="Display art&lt;div&gt;Initial card deal&lt;/div&gt;" style="rounded=1;whiteSpace=wrap;html=1;fontSize=12;glass=0;strokeWidth=1;shadow=0;" parent="WIyWlLk6GJQsqaUBKTNV-1" vertex="1">
          <mxGeometry x="160" y="234" width="120" height="60" as="geometry" />
        </mxCell>
        <mxCell id="GJMDexewAL50z0qPy0-k-16" value="" style="edgeStyle=orthogonalEdgeStyle;rounded=0;orthogonalLoop=1;jettySize=auto;html=1;" parent="WIyWlLk6GJQsqaUBKTNV-1" source="GJMDexewAL50z0qPy0-k-4" target="GJMDexewAL50z0qPy0-k-15" edge="1">
          <mxGeometry relative="1" as="geometry" />
        </mxCell>
        <mxCell id="GJMDexewAL50z0qPy0-k-22" value="" style="edgeStyle=orthogonalEdgeStyle;rounded=0;orthogonalLoop=1;jettySize=auto;html=1;" parent="WIyWlLk6GJQsqaUBKTNV-1" source="GJMDexewAL50z0qPy0-k-4" target="GJMDexewAL50z0qPy0-k-21" edge="1">
          <mxGeometry relative="1" as="geometry" />
        </mxCell>
        <mxCell id="GJMDexewAL50z0qPy0-k-4" value="Player&lt;div&gt;Blackjack?&lt;/div&gt;" style="rhombus;whiteSpace=wrap;html=1;shadow=0;fontFamily=Helvetica;fontSize=12;align=center;strokeWidth=1;spacing=6;spacingTop=-4;" parent="WIyWlLk6GJQsqaUBKTNV-1" vertex="1">
          <mxGeometry x="170" y="344" width="100" height="80" as="geometry" />
        </mxCell>
        <mxCell id="GJMDexewAL50z0qPy0-k-6" value="" style="rounded=0;html=1;jettySize=auto;orthogonalLoop=1;fontSize=11;endArrow=block;endFill=0;endSize=8;strokeWidth=1;shadow=0;labelBackgroundColor=none;edgeStyle=orthogonalEdgeStyle;entryX=0.5;entryY=0;entryDx=0;entryDy=0;" parent="WIyWlLk6GJQsqaUBKTNV-1" target="GJMDexewAL50z0qPy0-k-4" edge="1">
          <mxGeometry x="0.3333" y="20" relative="1" as="geometry">
            <mxPoint as="offset" />
            <mxPoint x="220" y="294" as="sourcePoint" />
            <mxPoint x="230" y="244" as="targetPoint" />
          </mxGeometry>
        </mxCell>
        <mxCell id="GJMDexewAL50z0qPy0-k-7" value="Yes" style="edgeStyle=orthogonalEdgeStyle;rounded=0;html=1;jettySize=auto;orthogonalLoop=1;fontSize=11;endArrow=block;endFill=0;endSize=8;strokeWidth=1;shadow=0;labelBackgroundColor=none;exitX=1;exitY=0.5;exitDx=0;exitDy=0;" parent="WIyWlLk6GJQsqaUBKTNV-1" source="GJMDexewAL50z0qPy0-k-4" edge="1">
          <mxGeometry x="-0.0833" y="15" relative="1" as="geometry">
            <mxPoint as="offset" />
            <mxPoint x="280" y="164" as="sourcePoint" />
            <mxPoint x="320" y="384" as="targetPoint" />
          </mxGeometry>
        </mxCell>
        <mxCell id="GJMDexewAL50z0qPy0-k-8" value="Player WON,&amp;nbsp;&lt;div&gt;display scores,&lt;div&gt;game ends&lt;/div&gt;&lt;/div&gt;" style="rounded=1;whiteSpace=wrap;html=1;fontSize=12;glass=0;strokeWidth=1;shadow=0;" parent="WIyWlLk6GJQsqaUBKTNV-1" vertex="1">
          <mxGeometry x="320" y="354" width="120" height="50" as="geometry" />
        </mxCell>
        <mxCell id="GJMDexewAL50z0qPy0-k-13" value="" style="edgeStyle=orthogonalEdgeStyle;rounded=0;html=1;jettySize=auto;orthogonalLoop=1;fontSize=11;endArrow=block;endFill=0;endSize=8;strokeWidth=1;shadow=0;labelBackgroundColor=none;exitX=1;exitY=0.5;exitDx=0;exitDy=0;entryX=1;entryY=0.5;entryDx=0;entryDy=0;" parent="WIyWlLk6GJQsqaUBKTNV-1" source="GJMDexewAL50z0qPy0-k-8" target="WIyWlLk6GJQsqaUBKTNV-11" edge="1">
          <mxGeometry x="-0.0833" y="15" relative="1" as="geometry">
            <mxPoint as="offset" />
            <mxPoint x="280" y="394" as="sourcePoint" />
            <mxPoint x="400" y="84" as="targetPoint" />
            <Array as="points">
              <mxPoint x="521" y="384" />
              <mxPoint x="521" y="94" />
              <mxPoint x="520" y="94" />
              <mxPoint x="520" y="84" />
            </Array>
          </mxGeometry>
        </mxCell>
        <mxCell id="GJMDexewAL50z0qPy0-k-15" value="Does Player take another card?" style="rhombus;whiteSpace=wrap;html=1;shadow=0;strokeWidth=1;spacing=6;spacingTop=-4;" parent="WIyWlLk6GJQsqaUBKTNV-1" vertex="1">
          <mxGeometry x="160" y="544" width="120" height="120" as="geometry" />
        </mxCell>
        <mxCell id="GJMDexewAL50z0qPy0-k-18" value="" style="edgeStyle=orthogonalEdgeStyle;rounded=0;html=1;jettySize=auto;orthogonalLoop=1;fontSize=11;endArrow=block;endFill=0;endSize=8;strokeWidth=1;shadow=0;labelBackgroundColor=none;exitX=0;exitY=0.5;exitDx=0;exitDy=0;" parent="WIyWlLk6GJQsqaUBKTNV-1" source="WIyWlLk6GJQsqaUBKTNV-11" edge="1">
          <mxGeometry y="10" relative="1" as="geometry">
            <mxPoint as="offset" />
            <mxPoint x="280" y="164" as="sourcePoint" />
            <mxPoint x="220" y="84" as="targetPoint" />
          </mxGeometry>
        </mxCell>
        <mxCell id="GJMDexewAL50z0qPy0-k-19" value="Yes" style="edgeStyle=orthogonalEdgeStyle;rounded=0;html=1;jettySize=auto;orthogonalLoop=1;fontSize=11;endArrow=block;endFill=0;endSize=8;strokeWidth=1;shadow=0;labelBackgroundColor=none;exitX=0;exitY=0.5;exitDx=0;exitDy=0;entryX=0;entryY=0.5;entryDx=0;entryDy=0;" parent="WIyWlLk6GJQsqaUBKTNV-1" source="GJMDexewAL50z0qPy0-k-15" target="GJMDexewAL50z0qPy0-k-4" edge="1">
          <mxGeometry x="-0.0833" y="15" relative="1" as="geometry">
            <mxPoint as="offset" />
            <mxPoint x="280" y="394" as="sourcePoint" />
            <mxPoint x="330" y="394" as="targetPoint" />
          </mxGeometry>
        </mxCell>
        <mxCell id="GJMDexewAL50z0qPy0-k-37" value="" style="edgeStyle=orthogonalEdgeStyle;rounded=0;orthogonalLoop=1;jettySize=auto;html=1;" parent="WIyWlLk6GJQsqaUBKTNV-1" source="GJMDexewAL50z0qPy0-k-21" target="GJMDexewAL50z0qPy0-k-15" edge="1">
          <mxGeometry relative="1" as="geometry" />
        </mxCell>
        <mxCell id="GJMDexewAL50z0qPy0-k-21" value="Player&lt;div&gt;over 21?&lt;/div&gt;" style="rhombus;whiteSpace=wrap;html=1;shadow=0;strokeWidth=1;spacing=6;spacingTop=-4;" parent="WIyWlLk6GJQsqaUBKTNV-1" vertex="1">
          <mxGeometry x="170" y="444" width="100" height="80" as="geometry" />
        </mxCell>
        <mxCell id="GJMDexewAL50z0qPy0-k-23" value="Yes" style="edgeStyle=orthogonalEdgeStyle;rounded=0;html=1;jettySize=auto;orthogonalLoop=1;fontSize=11;endArrow=block;endFill=0;endSize=8;strokeWidth=1;shadow=0;labelBackgroundColor=none;exitX=1;exitY=0.5;exitDx=0;exitDy=0;" parent="WIyWlLk6GJQsqaUBKTNV-1" edge="1">
          <mxGeometry x="-0.0833" y="15" relative="1" as="geometry">
            <mxPoint as="offset" />
            <mxPoint x="272" y="484" as="sourcePoint" />
            <mxPoint x="322" y="484" as="targetPoint" />
          </mxGeometry>
        </mxCell>
        <mxCell id="GJMDexewAL50z0qPy0-k-24" value="Player LOST&amp;nbsp;&lt;div&gt;display scores,&lt;div&gt;game ends&lt;/div&gt;&lt;/div&gt;" style="rounded=1;whiteSpace=wrap;html=1;fontSize=12;glass=0;strokeWidth=1;shadow=0;" parent="WIyWlLk6GJQsqaUBKTNV-1" vertex="1">
          <mxGeometry x="322" y="454" width="120" height="50" as="geometry" />
        </mxCell>
        <mxCell id="GJMDexewAL50z0qPy0-k-25" value="" style="edgeStyle=orthogonalEdgeStyle;rounded=0;html=1;jettySize=auto;orthogonalLoop=1;fontSize=11;endArrow=block;endFill=0;endSize=8;strokeWidth=1;shadow=0;labelBackgroundColor=none;exitX=1;exitY=0.5;exitDx=0;exitDy=0;" parent="WIyWlLk6GJQsqaUBKTNV-1" source="GJMDexewAL50z0qPy0-k-24" edge="1">
          <mxGeometry x="-0.0833" y="15" relative="1" as="geometry">
            <mxPoint as="offset" />
            <mxPoint x="282" y="494" as="sourcePoint" />
            <mxPoint x="520" y="384" as="targetPoint" />
            <Array as="points">
              <mxPoint x="442" y="484" />
              <mxPoint x="520" y="484" />
            </Array>
          </mxGeometry>
        </mxCell>
        <mxCell id="GJMDexewAL50z0qPy0-k-26" value="No" style="rounded=0;html=1;jettySize=auto;orthogonalLoop=1;fontSize=11;endArrow=block;endFill=0;endSize=8;strokeWidth=1;shadow=0;labelBackgroundColor=none;edgeStyle=orthogonalEdgeStyle;exitX=0.5;exitY=1;exitDx=0;exitDy=0;" parent="WIyWlLk6GJQsqaUBKTNV-1" edge="1">
          <mxGeometry x="0.3333" y="20" relative="1" as="geometry">
            <mxPoint as="offset" />
            <mxPoint x="220" y="664" as="sourcePoint" />
            <mxPoint x="220" y="704" as="targetPoint" />
          </mxGeometry>
        </mxCell>
        <mxCell id="GJMDexewAL50z0qPy0-k-27" value="Dealer&lt;div&gt;Blackjack?&lt;/div&gt;" style="rhombus;whiteSpace=wrap;html=1;shadow=0;fontFamily=Helvetica;fontSize=12;align=center;strokeWidth=1;spacing=6;spacingTop=-4;" parent="WIyWlLk6GJQsqaUBKTNV-1" vertex="1">
          <mxGeometry x="170" y="704" width="100" height="80" as="geometry" />
        </mxCell>
        <mxCell id="GJMDexewAL50z0qPy0-k-28" value="" style="edgeStyle=orthogonalEdgeStyle;rounded=0;orthogonalLoop=1;jettySize=auto;html=1;" parent="WIyWlLk6GJQsqaUBKTNV-1" source="GJMDexewAL50z0qPy0-k-27" target="GJMDexewAL50z0qPy0-k-33" edge="1">
          <mxGeometry relative="1" as="geometry" />
        </mxCell>
        <mxCell id="GJMDexewAL50z0qPy0-k-29" value="Yes" style="edgeStyle=orthogonalEdgeStyle;rounded=0;html=1;jettySize=auto;orthogonalLoop=1;fontSize=11;endArrow=block;endFill=0;endSize=8;strokeWidth=1;shadow=0;labelBackgroundColor=none;exitX=1;exitY=0.5;exitDx=0;exitDy=0;" parent="WIyWlLk6GJQsqaUBKTNV-1" source="GJMDexewAL50z0qPy0-k-27" edge="1">
          <mxGeometry x="-0.0833" y="15" relative="1" as="geometry">
            <mxPoint as="offset" />
            <mxPoint x="280" y="524" as="sourcePoint" />
            <mxPoint x="320" y="744" as="targetPoint" />
          </mxGeometry>
        </mxCell>
        <mxCell id="GJMDexewAL50z0qPy0-k-30" value="Player LOST,&amp;nbsp;&lt;div&gt;display scores,&lt;div&gt;game ends&lt;/div&gt;&lt;/div&gt;" style="rounded=1;whiteSpace=wrap;html=1;fontSize=12;glass=0;strokeWidth=1;shadow=0;" parent="WIyWlLk6GJQsqaUBKTNV-1" vertex="1">
          <mxGeometry x="320" y="714" width="120" height="50" as="geometry" />
        </mxCell>
        <mxCell id="GJMDexewAL50z0qPy0-k-31" value="Player WON&amp;nbsp;&lt;div&gt;display scores,&lt;div&gt;game ends&lt;/div&gt;&lt;/div&gt;" style="rounded=1;whiteSpace=wrap;html=1;fontSize=12;glass=0;strokeWidth=1;shadow=0;" parent="WIyWlLk6GJQsqaUBKTNV-1" vertex="1">
          <mxGeometry x="322" y="814" width="120" height="50" as="geometry" />
        </mxCell>
        <mxCell id="GJMDexewAL50z0qPy0-k-32" value="Yes" style="edgeStyle=orthogonalEdgeStyle;rounded=0;html=1;jettySize=auto;orthogonalLoop=1;fontSize=11;endArrow=block;endFill=0;endSize=8;strokeWidth=1;shadow=0;labelBackgroundColor=none;exitX=1;exitY=0.5;exitDx=0;exitDy=0;" parent="WIyWlLk6GJQsqaUBKTNV-1" edge="1">
          <mxGeometry x="-0.0833" y="15" relative="1" as="geometry">
            <mxPoint as="offset" />
            <mxPoint x="272" y="844" as="sourcePoint" />
            <mxPoint x="322" y="844" as="targetPoint" />
          </mxGeometry>
        </mxCell>
        <mxCell id="Rp75Z2cTl3hs8n0aI1Q2-1" value="" style="edgeStyle=orthogonalEdgeStyle;rounded=0;orthogonalLoop=1;jettySize=auto;html=1;" parent="WIyWlLk6GJQsqaUBKTNV-1" source="GJMDexewAL50z0qPy0-k-33" target="Rp75Z2cTl3hs8n0aI1Q2-0" edge="1">
          <mxGeometry relative="1" as="geometry" />
        </mxCell>
        <mxCell id="GJMDexewAL50z0qPy0-k-33" value="Dealer&lt;div&gt;Over 21?&lt;/div&gt;" style="rhombus;whiteSpace=wrap;html=1;shadow=0;strokeWidth=1;spacing=6;spacingTop=-4;" parent="WIyWlLk6GJQsqaUBKTNV-1" vertex="1">
          <mxGeometry x="170" y="804" width="100" height="80" as="geometry" />
        </mxCell>
        <mxCell id="GJMDexewAL50z0qPy0-k-34" value="" style="edgeStyle=orthogonalEdgeStyle;rounded=0;html=1;jettySize=auto;orthogonalLoop=1;fontSize=11;endArrow=block;endFill=0;endSize=8;strokeWidth=1;shadow=0;labelBackgroundColor=none;exitX=1;exitY=0.5;exitDx=0;exitDy=0;" parent="WIyWlLk6GJQsqaUBKTNV-1" edge="1">
          <mxGeometry x="-0.0833" y="15" relative="1" as="geometry">
            <mxPoint as="offset" />
            <mxPoint x="442" y="739" as="sourcePoint" />
            <mxPoint x="520" y="484" as="targetPoint" />
            <Array as="points">
              <mxPoint x="442" y="744" />
              <mxPoint x="520" y="744" />
            </Array>
          </mxGeometry>
        </mxCell>
        <mxCell id="GJMDexewAL50z0qPy0-k-35" value="" style="edgeStyle=orthogonalEdgeStyle;rounded=0;html=1;jettySize=auto;orthogonalLoop=1;fontSize=11;endArrow=block;endFill=0;endSize=8;strokeWidth=1;shadow=0;labelBackgroundColor=none;exitX=1;exitY=0.5;exitDx=0;exitDy=0;" parent="WIyWlLk6GJQsqaUBKTNV-1" edge="1">
          <mxGeometry x="-0.0833" y="15" relative="1" as="geometry">
            <mxPoint as="offset" />
            <mxPoint x="441" y="839" as="sourcePoint" />
            <mxPoint x="519" y="744" as="targetPoint" />
            <Array as="points">
              <mxPoint x="441" y="844" />
              <mxPoint x="519" y="844" />
            </Array>
          </mxGeometry>
        </mxCell>
        <mxCell id="Rp75Z2cTl3hs8n0aI1Q2-0" value="Is&lt;div&gt;dealer score over 17?&lt;/div&gt;" style="rhombus;whiteSpace=wrap;html=1;shadow=0;strokeWidth=1;spacing=6;spacingTop=-4;" parent="WIyWlLk6GJQsqaUBKTNV-1" vertex="1">
          <mxGeometry x="175" y="914" width="90" height="90" as="geometry" />
        </mxCell>
        <mxCell id="Rp75Z2cTl3hs8n0aI1Q2-2" value="No" style="rounded=0;html=1;jettySize=auto;orthogonalLoop=1;fontSize=11;endArrow=block;endFill=0;endSize=8;strokeWidth=1;shadow=0;labelBackgroundColor=none;edgeStyle=orthogonalEdgeStyle;exitX=0.5;exitY=1;exitDx=0;exitDy=0;" parent="WIyWlLk6GJQsqaUBKTNV-1" edge="1">
          <mxGeometry x="0.3333" y="20" relative="1" as="geometry">
            <mxPoint as="offset" />
            <mxPoint x="220" y="1003" as="sourcePoint" />
            <mxPoint x="220" y="1043" as="targetPoint" />
          </mxGeometry>
        </mxCell>
        <mxCell id="Rp75Z2cTl3hs8n0aI1Q2-3" value="Yes" style="edgeStyle=orthogonalEdgeStyle;rounded=0;html=1;jettySize=auto;orthogonalLoop=1;fontSize=11;endArrow=block;endFill=0;endSize=8;strokeWidth=1;shadow=0;labelBackgroundColor=none;exitX=1;exitY=0.5;exitDx=0;exitDy=0;" parent="WIyWlLk6GJQsqaUBKTNV-1" edge="1">
          <mxGeometry x="-0.0833" y="15" relative="1" as="geometry">
            <mxPoint as="offset" />
            <mxPoint x="266" y="960" as="sourcePoint" />
            <mxPoint x="316" y="960" as="targetPoint" />
          </mxGeometry>
        </mxCell>
        <mxCell id="YDJqR5KLR7c8Sh0XbnBp-0" value="Dealer takes a card" style="rounded=1;whiteSpace=wrap;html=1;fontSize=12;glass=0;strokeWidth=1;shadow=0;" vertex="1" parent="WIyWlLk6GJQsqaUBKTNV-1">
          <mxGeometry x="160" y="1044" width="120" height="50" as="geometry" />
        </mxCell>
        <mxCell id="YDJqR5KLR7c8Sh0XbnBp-1" value="No" style="rounded=0;html=1;jettySize=auto;orthogonalLoop=1;fontSize=11;endArrow=block;endFill=0;endSize=8;strokeWidth=1;shadow=0;labelBackgroundColor=none;edgeStyle=orthogonalEdgeStyle;exitX=0.5;exitY=1;exitDx=0;exitDy=0;" edge="1" parent="WIyWlLk6GJQsqaUBKTNV-1" source="YDJqR5KLR7c8Sh0XbnBp-0">
          <mxGeometry x="0.3333" y="20" relative="1" as="geometry">
            <mxPoint as="offset" />
            <mxPoint x="231" y="1106" as="sourcePoint" />
            <mxPoint x="170" y="743" as="targetPoint" />
            <Array as="points">
              <mxPoint x="220" y="1143" />
              <mxPoint x="70" y="1143" />
              <mxPoint x="70" y="743" />
            </Array>
          </mxGeometry>
        </mxCell>
        <mxCell id="YDJqR5KLR7c8Sh0XbnBp-3" value="Is&lt;div&gt;dealer score&amp;nbsp; GREATER than player?&lt;/div&gt;" style="rhombus;whiteSpace=wrap;html=1;shadow=0;strokeWidth=1;spacing=6;spacingTop=-4;" vertex="1" parent="WIyWlLk6GJQsqaUBKTNV-1">
          <mxGeometry x="310" y="914" width="90" height="90" as="geometry" />
        </mxCell>
        <mxCell id="YDJqR5KLR7c8Sh0XbnBp-4" value="Yes" style="edgeStyle=orthogonalEdgeStyle;rounded=0;html=1;jettySize=auto;orthogonalLoop=1;fontSize=11;endArrow=block;endFill=0;endSize=8;strokeWidth=1;shadow=0;labelBackgroundColor=none;exitX=1;exitY=0.5;exitDx=0;exitDy=0;" edge="1" parent="WIyWlLk6GJQsqaUBKTNV-1">
          <mxGeometry x="-0.0833" y="15" relative="1" as="geometry">
            <mxPoint as="offset" />
            <mxPoint x="397" y="960" as="sourcePoint" />
            <mxPoint x="447" y="960" as="targetPoint" />
          </mxGeometry>
        </mxCell>
        <mxCell id="YDJqR5KLR7c8Sh0XbnBp-5" value="No" style="rounded=0;html=1;jettySize=auto;orthogonalLoop=1;fontSize=11;endArrow=block;endFill=0;endSize=8;strokeWidth=1;shadow=0;labelBackgroundColor=none;edgeStyle=orthogonalEdgeStyle;exitX=0.5;exitY=1;exitDx=0;exitDy=0;" edge="1" parent="WIyWlLk6GJQsqaUBKTNV-1">
          <mxGeometry x="0.3333" y="20" relative="1" as="geometry">
            <mxPoint as="offset" />
            <mxPoint x="355" y="1003" as="sourcePoint" />
            <mxPoint x="355" y="1043" as="targetPoint" />
          </mxGeometry>
        </mxCell>
        <mxCell id="YDJqR5KLR7c8Sh0XbnBp-6" value="Player LOST,&amp;nbsp;&lt;div&gt;display scores,&lt;div&gt;game ends&lt;/div&gt;&lt;/div&gt;" style="rounded=1;whiteSpace=wrap;html=1;fontSize=12;glass=0;strokeWidth=1;shadow=0;" vertex="1" parent="WIyWlLk6GJQsqaUBKTNV-1">
          <mxGeometry x="442" y="934" width="120" height="50" as="geometry" />
        </mxCell>
        <mxCell id="YDJqR5KLR7c8Sh0XbnBp-7" value="Player WON&amp;nbsp;&lt;div&gt;display scores,&lt;div&gt;game ends&lt;/div&gt;&lt;/div&gt;" style="rounded=1;whiteSpace=wrap;html=1;fontSize=12;glass=0;strokeWidth=1;shadow=0;" vertex="1" parent="WIyWlLk6GJQsqaUBKTNV-1">
          <mxGeometry x="300" y="1044" width="120" height="50" as="geometry" />
        </mxCell>
        <mxCell id="YDJqR5KLR7c8Sh0XbnBp-8" value="" style="edgeStyle=orthogonalEdgeStyle;rounded=0;html=1;jettySize=auto;orthogonalLoop=1;fontSize=11;endArrow=block;endFill=0;endSize=8;strokeWidth=1;shadow=0;labelBackgroundColor=none;exitX=1;exitY=0.5;exitDx=0;exitDy=0;" edge="1" parent="WIyWlLk6GJQsqaUBKTNV-1" source="YDJqR5KLR7c8Sh0XbnBp-7">
          <mxGeometry x="-0.0833" y="15" relative="1" as="geometry">
            <mxPoint as="offset" />
            <mxPoint x="520" y="1070" as="sourcePoint" />
            <mxPoint x="640" y="950" as="targetPoint" />
            <Array as="points">
              <mxPoint x="561" y="1069" />
              <mxPoint x="639" y="1070" />
            </Array>
          </mxGeometry>
        </mxCell>
        <mxCell id="YDJqR5KLR7c8Sh0XbnBp-9" value="" style="edgeStyle=orthogonalEdgeStyle;rounded=0;html=1;jettySize=auto;orthogonalLoop=1;fontSize=11;endArrow=block;endFill=0;endSize=8;strokeWidth=1;shadow=0;labelBackgroundColor=none;exitX=1;exitY=0.5;exitDx=0;exitDy=0;" edge="1" parent="WIyWlLk6GJQsqaUBKTNV-1">
          <mxGeometry x="-0.0833" y="15" relative="1" as="geometry">
            <mxPoint as="offset" />
            <mxPoint x="562" y="949" as="sourcePoint" />
            <mxPoint x="520" y="80" as="targetPoint" />
            <Array as="points">
              <mxPoint x="562" y="954" />
              <mxPoint x="640" y="954" />
              <mxPoint x="640" y="80" />
            </Array>
          </mxGeometry>
        </mxCell>
      </root>
    </mxGraphModel>
  </diagram>
</mxfile>
